<svg width="152" height="151" viewBox="0 0 152 151" fill="none" xmlns="http://www.w3.org/2000/svg">
    <path
        d="M63.3009 137.473C63.2574 137.737 63.2604 137.977 63.31 138.193C63.3536 138.413 63.4627 138.622 63.6374 138.821C63.8069 139.019 64.0553 139.222 64.3828 139.431C64.705 139.638 65.12 139.863 65.6278 140.106C66.1598 140.364 66.6345 140.631 67.0517 140.907C67.4682 141.189 67.8152 141.488 68.0927 141.805C68.3703 142.122 68.5664 142.465 68.681 142.835C68.7956 143.205 68.8167 143.61 68.7442 144.05C68.6717 144.491 68.5141 144.882 68.2714 145.225C68.0288 145.568 67.7165 145.849 67.3347 146.068C66.9469 146.292 66.5045 146.442 66.0077 146.52C65.5109 146.598 64.9724 146.589 64.3924 146.493C63.5431 146.353 62.8502 146.072 62.3136 145.648C61.7709 145.229 61.3873 144.732 61.1627 144.158C60.9373 143.589 60.8732 143.009 60.9704 142.419L62.4618 142.665C62.3919 143.089 62.4207 143.48 62.5482 143.836C62.6749 144.197 62.9067 144.501 63.2437 144.748C63.5798 145 64.0301 145.173 64.5946 145.266C65.128 145.354 65.5814 145.346 65.9548 145.243C66.3282 145.139 66.6229 144.964 66.839 144.718C67.0499 144.471 67.1844 144.171 67.2424 143.819C67.2816 143.581 67.2683 143.355 67.2023 143.142C67.1303 142.934 67.0017 142.729 66.8167 142.528C66.6265 142.327 66.3772 142.129 66.0688 141.934C65.7552 141.739 65.376 141.538 64.9313 141.332C64.319 141.045 63.7981 140.752 63.3687 140.452C62.9393 140.153 62.5975 139.839 62.3432 139.51C62.0828 139.185 61.9092 138.834 61.8222 138.458C61.7291 138.087 61.7189 137.681 61.7914 137.241C61.8673 136.78 62.0291 136.378 62.277 136.036C62.5248 135.694 62.844 135.419 63.2344 135.212C63.6249 135.005 64.0755 134.869 64.5861 134.805C65.0908 134.744 65.6408 134.763 66.2364 134.861C66.7594 134.947 67.2628 135.104 67.7464 135.333C68.2248 135.561 68.6473 135.854 69.0138 136.212C69.3752 136.569 69.6452 136.981 69.8238 137.446C69.9964 137.916 70.0362 138.433 69.9433 138.998L68.4518 138.752C68.5158 138.364 68.4957 138.018 68.3916 137.713C68.2866 137.414 68.1196 137.152 67.8905 136.929C67.6563 136.704 67.3807 136.52 67.0637 136.377C66.7408 136.239 66.398 136.14 66.0355 136.08C65.5125 135.994 65.0578 135.994 64.6714 136.079C64.285 136.165 63.9764 136.326 63.7457 136.565C63.5097 136.803 63.3614 137.105 63.3009 137.473Z"
        fill="white" />
    <path
        d="M51.6353 131.829C51.3172 131.691 50.9952 131.63 50.6692 131.643C50.3432 131.657 50.0446 131.74 49.7734 131.891C49.5002 132.048 49.2881 132.268 49.1372 132.552L47.8649 132.003C48.0886 131.551 48.4312 131.187 48.8929 130.912C49.3477 130.639 49.8594 130.48 50.4281 130.433C50.9946 130.392 51.555 130.491 52.1092 130.73C52.6972 130.983 53.1657 131.308 53.5149 131.705C53.8593 132.099 54.098 132.539 54.2313 133.026C54.3597 133.51 54.3954 134.017 54.3384 134.546C54.2744 135.079 54.1292 135.608 53.9026 136.133L53.7716 136.437C53.5451 136.962 53.2611 137.428 52.9197 137.835C52.5714 138.245 52.1772 138.57 51.7369 138.809C51.2919 139.045 50.8078 139.174 50.2847 139.194C49.7568 139.212 49.1988 139.094 48.6109 138.841C47.9988 138.577 47.518 138.221 47.1682 137.772C46.8164 137.329 46.6029 136.837 46.5277 136.296C46.4455 135.757 46.5088 135.213 46.7175 134.663L47.9898 135.212C47.8746 135.545 47.8404 135.876 47.8872 136.205C47.9292 136.532 48.0518 136.83 48.2552 137.101C48.4517 137.374 48.7282 137.588 49.0848 137.742C49.4944 137.918 49.8744 137.985 50.2245 137.942C50.5678 137.901 50.8806 137.779 51.163 137.575C51.4384 137.374 51.684 137.122 51.8997 136.821C52.1085 136.522 52.2867 136.202 52.4343 135.86L52.5653 135.556C52.7128 135.214 52.8246 134.862 52.9006 134.501C52.9765 134.139 52.9932 133.789 52.9506 133.45C52.9031 133.11 52.7774 132.799 52.5734 132.516C52.3624 132.237 52.0498 132.007 51.6353 131.829Z"
        fill="white" />
    <path
        d="M37.1951 130.769L41.3525 124.915L42.5399 125.759L37.6076 132.703L36.4522 131.883L37.1951 130.769ZM34.2234 130.358L35.0138 129.258C35.0971 129.35 35.1821 129.429 35.2689 129.497C35.3484 129.567 35.4438 129.641 35.555 129.72C35.8289 129.914 36.101 130.043 36.3715 130.107C36.6419 130.17 36.9046 130.176 37.1595 130.126C37.4144 130.075 37.6606 129.973 37.8981 129.82C38.1284 129.668 38.3459 129.475 38.5509 129.241L39.0214 129.285C38.7236 129.704 38.4034 130.069 38.0607 130.379C37.7138 130.687 37.3523 130.919 36.9763 131.077C36.5972 131.239 36.2167 131.304 35.8347 131.27C35.4453 131.239 35.0624 131.089 34.6858 130.821C34.6003 130.761 34.5095 130.68 34.4134 130.58C34.3143 130.483 34.2509 130.41 34.2234 130.358Z"
        fill="white" />
    <path
        d="M30.9269 121.88L30.7925 122.001C30.3368 122.413 29.8544 122.728 29.3453 122.948C28.8323 123.171 28.3191 123.287 27.8057 123.298C27.2884 123.313 26.7899 123.215 26.3101 123.005C25.8264 122.798 25.3858 122.475 24.9884 122.035C24.5874 121.591 24.3086 121.117 24.1521 120.615C23.9882 120.113 23.9398 119.605 24.0068 119.092C24.0664 118.578 24.2331 118.078 24.5069 117.59C24.7768 117.106 25.1397 116.658 25.5954 116.246L25.7298 116.125C26.1855 115.713 26.668 115.398 27.1771 115.179C27.6862 114.959 28.2011 114.844 28.7219 114.834C29.2353 114.823 29.7338 114.921 30.2175 115.127C30.6938 115.334 31.1324 115.659 31.5334 116.103C31.9344 116.547 32.2151 117.018 32.3755 117.517C32.532 118.019 32.5804 118.527 32.5208 119.041C32.4538 119.554 32.2853 120.052 32.0154 120.536C31.7455 121.021 31.3827 121.469 30.9269 121.88ZM29.8164 120.921L29.9508 120.799C30.2663 120.514 30.5309 120.208 30.7445 119.881C30.9542 119.557 31.0994 119.225 31.18 118.883C31.257 118.538 31.2558 118.196 31.1765 117.857C31.0932 117.522 30.9162 117.205 30.6453 116.905C30.378 116.609 30.0837 116.404 29.7624 116.291C29.4338 116.178 29.0955 116.144 28.7476 116.19C28.3997 116.235 28.054 116.346 27.7107 116.521C27.3599 116.697 27.0267 116.927 26.7112 117.212L26.5768 117.333C26.2652 117.614 26.0063 117.919 25.8001 118.247C25.5864 118.574 25.4411 118.91 25.3641 119.256C25.2796 119.601 25.277 119.942 25.3564 120.281C25.4323 120.615 25.6056 120.933 25.8765 121.233C26.1438 121.529 26.4418 121.733 26.7705 121.847C27.0956 121.956 27.4358 121.988 27.7911 121.943C28.139 121.898 28.4866 121.785 28.8339 121.606C29.1773 121.43 29.5048 121.202 29.8164 120.921Z"
        fill="white" />
    <path d="M13.157 111.63L23.5746 105.49L24.3181 106.752L13.9005 112.892L13.157 111.63Z" fill="white" />
    <path d="M8.41003 101.741L19.6346 97.2435L20.1793 98.6028L8.95469 103.101L8.41003 101.741Z" fill="white" />
    <path
        d="M13.8869 74.6417L3.44855 74.7559L3.43254 73.2917L15.5241 73.1595L15.5387 74.4977L13.8869 74.6417ZM11.4384 80.4001L11.2731 80.4019C10.6223 80.409 10.0311 80.3367 9.49929 80.1851C8.96221 80.0283 8.50051 79.805 8.11419 79.5153C7.72781 79.2203 7.43005 78.8693 7.22089 78.4622C7.00644 78.0499 6.89643 77.5892 6.89086 77.0801C6.88501 76.5448 6.97437 76.0767 7.15893 75.6758C7.3382 75.2697 7.60474 74.9256 7.95857 74.6436C8.30709 74.3563 8.72974 74.1287 9.22653 73.9605C9.72332 73.7924 10.2862 73.6734 10.9153 73.6035L11.6396 73.5956C12.2647 73.6465 12.8275 73.7532 13.3279 73.9157C13.8282 74.0729 14.2558 74.2913 14.6105 74.5708C14.9651 74.8451 15.2391 75.1833 15.4325 75.5853C15.6206 75.9874 15.7176 76.4588 15.7235 76.9993C15.729 77.4979 15.6264 77.9556 15.4157 78.3726C15.205 78.7843 14.9072 79.1418 14.5221 79.4452C14.1369 79.7434 13.6828 79.9766 13.1598 80.1451C12.6315 80.3083 12.0577 80.3933 11.4384 80.4001ZM11.2571 78.9377L11.4224 78.9359C11.8475 78.9312 12.2459 78.8849 12.6176 78.7968C12.9892 78.7035 13.3157 78.5635 13.5971 78.3767C13.8785 78.1899 14.099 77.954 14.2586 77.6688C14.4129 77.3837 14.4879 77.0443 14.4836 76.6507C14.4784 76.1679 14.3717 75.7728 14.1636 75.4654C13.9555 75.1527 13.6825 74.9038 13.3445 74.7185C13.0066 74.5333 12.6403 74.3903 12.2455 74.2897L10.3483 74.3104C10.0604 74.3765 9.78323 74.4714 9.5169 74.595C9.24526 74.7135 9.00551 74.8683 8.79766 75.0596C8.5845 75.2456 8.41643 75.4757 8.29346 75.75C8.17043 76.019 8.11093 76.3372 8.11495 76.7046C8.11931 77.1035 8.20704 77.4463 8.37813 77.7331C8.54392 78.0147 8.77214 78.2458 9.06279 78.4263C9.34819 78.6069 9.68031 78.7397 10.0591 78.8248C10.4327 78.9047 10.832 78.9423 11.2571 78.9377Z"
        fill="white" />
    <path
        d="M12.2294 64.1526L12.0536 64.1093C11.4573 63.9624 10.9258 63.7396 10.4588 63.4408C9.98678 63.1408 9.60237 62.7813 9.30558 62.3623C9.0037 61.942 8.80539 61.4743 8.71066 60.9591C8.61083 60.4426 8.63183 59.8964 8.77365 59.3206C8.91672 58.7396 9.15238 58.2436 9.48063 57.8326C9.80503 57.4152 10.1985 57.0905 10.661 56.8585C11.1197 56.6201 11.6278 56.4777 12.1851 56.4312C12.7374 56.3834 13.3117 56.4329 13.9079 56.5798L14.0837 56.6231C14.68 56.7699 15.2116 56.9927 15.6785 57.2915C16.1454 57.5903 16.5292 57.9523 16.8299 58.3777C17.1266 58.7967 17.325 59.2645 17.4248 59.7809C17.5208 60.291 17.4972 60.8366 17.3542 61.4175C17.2111 61.9985 16.978 62.4951 16.6548 62.9074C16.3266 63.3184 15.9331 63.6431 15.4744 63.8815C15.0119 64.1135 14.5045 64.2534 13.9522 64.3012C13.3999 64.3489 12.8257 64.2994 12.2294 64.1526ZM12.4019 62.6951L12.5777 62.7384C12.9905 62.8401 13.3922 62.8877 13.783 62.8812C14.1687 62.8735 14.5255 62.8073 14.8535 62.6827C15.1827 62.553 15.4653 62.3604 15.7011 62.105C15.9319 61.8483 16.0956 61.5238 16.1922 61.1314C16.2876 60.7441 16.2921 60.3857 16.2057 60.0563C16.1154 59.7206 15.9539 59.4214 15.7213 59.1587C15.4887 58.896 15.2035 58.6717 14.8655 58.4858C14.5237 58.2935 14.1464 58.1465 13.7336 58.0449L13.5578 58.0016C13.1501 57.9012 12.7528 57.8574 12.3658 57.8702C11.9751 57.8767 11.6151 57.9448 11.2858 58.0745C10.9528 58.1978 10.6683 58.3872 10.4324 58.6426C10.1978 58.893 10.0322 59.2143 9.93556 59.6067C9.84017 59.994 9.83762 60.3555 9.92791 60.6913C10.0194 61.0219 10.1834 61.3218 10.4199 61.5908C10.6525 61.8535 10.9403 62.0784 11.2834 62.2656C11.6213 62.4515 11.9942 62.5947 12.4019 62.6951Z"
        fill="white" />
    <path
        d="M20.5826 47.5648L15.5398 42.2307L16.0092 41.3928L17.1325 42.2388L22.2591 47.6649L21.8012 48.4822L20.5826 47.5648ZM13.7504 45.4244L20.8436 47.2599L22.159 47.8434L21.678 48.7019L13.0385 46.695L13.7504 45.4244ZM23.1659 43.0022L17.9024 38.0138L18.6105 36.75L24.8334 43.0701L24.3563 43.9218L23.1659 43.0022ZM16.1131 41.2074L23.1693 42.7063L24.7103 43.2899L24.2562 44.1004L16.9071 42.6088L15.6129 42.1002L16.1131 41.2074Z"
        fill="white" />
    <path
        d="M26.4803 30.0286L31.2829 34.6997L30.2675 35.7438L24.1612 29.8047L25.1218 28.8171L26.4803 30.0286ZM27.7569 31.7535L27.3173 32.1716C26.9034 31.7616 26.5781 31.3245 26.3416 30.8601C26.1012 30.3921 25.9555 29.9209 25.9044 29.4465C25.8533 28.9721 25.9026 28.5149 26.0524 28.0749C26.202 27.6274 26.4562 27.2194 26.8148 26.8506C27.1075 26.5497 27.4124 26.319 27.7293 26.1587C28.0426 25.9948 28.3699 25.9142 28.7114 25.9169C29.0566 25.9158 29.4141 26.0073 29.7841 26.1915C30.1504 26.372 30.5348 26.658 30.9373 27.0495L34.9385 30.9412L33.9176 31.9909L29.9051 28.0882C29.5853 27.7772 29.2837 27.5754 29.0004 27.4828C28.7132 27.3866 28.4386 27.3867 28.1764 27.4831C27.9105 27.5759 27.6494 27.7539 27.3933 28.0173C27.1408 28.2769 26.9648 28.567 26.8653 28.8876C26.7695 29.2044 26.7425 29.5332 26.7844 29.8741C26.8299 30.2112 26.9347 30.5438 27.0989 30.8718C27.2629 31.1925 27.4823 31.4863 27.7569 31.7535Z"
        fill="white" />
    <path
        d="M51.5198 20.1582L50.1954 20.7641L46.2782 12.2021C46.0227 11.6437 45.9078 11.1277 45.9336 10.6542C45.9619 10.1738 46.1223 9.74834 46.4145 9.37798C46.7046 9.00285 47.1122 8.69519 47.6372 8.455C47.7899 8.38513 47.947 8.3248 48.1084 8.27402C48.2747 8.22105 48.4405 8.17981 48.6059 8.15031L49.0289 9.26405C48.9177 9.28604 48.7956 9.32174 48.6623 9.37115C48.5339 9.41838 48.4076 9.47038 48.2835 9.52715C48.0019 9.65598 47.7847 9.82461 47.6319 10.033C47.4817 10.2345 47.4032 10.4667 47.3965 10.7295C47.3897 10.9923 47.4584 11.2812 47.6025 11.5962L51.5198 20.1582ZM49.6225 11.659L50.0876 12.6755L45.8925 14.5948L45.4274 13.5783L49.6225 11.659Z"
        fill="white" />
    <path
        d="M57.7332 13.3103L57.6939 13.1336C57.5607 12.5342 57.5242 11.9589 57.5845 11.4079C57.6436 10.8517 57.795 10.3476 58.0386 9.89556C58.2811 9.43842 58.6121 9.053 59.0316 8.73931C59.45 8.42048 59.9487 8.19672 60.5276 8.06802C61.1117 7.93818 61.6607 7.92903 62.1748 8.04056C62.6928 8.14583 63.1585 8.35415 63.5718 8.6655C63.9891 8.97059 64.3423 9.36251 64.6316 9.84123C64.9197 10.3148 65.1303 10.8514 65.2636 11.4508L65.3029 11.6275C65.4361 12.227 65.4726 12.8022 65.4123 13.3533C65.352 13.9043 65.1981 14.409 64.9505 14.8673C64.7069 15.3193 64.3759 15.7047 63.9575 16.0235C63.5431 16.3361 63.0439 16.5573 62.4598 16.6871C61.8758 16.817 61.3273 16.8287 60.8144 16.7223C60.3003 16.6107 59.8346 16.4024 59.4173 16.0973C59.004 15.786 58.6533 15.3935 58.3652 14.9199C58.0771 14.4463 57.8665 13.9098 57.7332 13.3103ZM59.1156 12.8175L59.1549 12.9943C59.2472 13.4093 59.383 13.7904 59.5623 14.1376C59.7405 14.4797 59.9583 14.77 60.2156 15.0085C60.4781 15.2459 60.7761 15.4135 61.1097 15.5114C61.4422 15.6042 61.8056 15.6067 62.2001 15.519C62.5895 15.4324 62.9125 15.2773 63.1693 15.0536C63.43 14.8235 63.6263 14.546 63.7584 14.221C63.8904 13.8959 63.9647 13.5407 63.9812 13.1553C64.0016 12.7636 63.9657 12.3603 63.8735 11.9453L63.8342 11.7685C63.7431 11.3587 63.6059 10.9833 63.4225 10.6423C63.2432 10.2951 63.0223 10.0028 62.7598 9.76539C62.5014 9.52176 62.2053 9.35101 61.8717 9.25312C61.5433 9.1541 61.1818 9.14843 60.7873 9.23613C60.3979 9.32269 60.0729 9.48097 59.8122 9.71098C59.5566 9.93984 59.3608 10.2199 59.2247 10.5513C59.0927 10.8763 59.019 11.2341 59.0037 11.6246C58.9872 12.01 59.0245 12.4077 59.1156 12.8175Z"
        fill="white" />
    <path
        d="M75.5 7.82026V15H74.0436V6.48192H75.4607L75.5 7.82026ZM78.161 6.43469L78.1531 7.78877C78.0324 7.76253 77.9169 7.74678 77.8067 7.74153C77.7017 7.73103 77.581 7.72579 77.4446 7.72579C77.1087 7.72579 76.8121 7.77827 76.555 7.88324C76.2978 7.98821 76.08 8.13516 75.9015 8.3241C75.7231 8.51304 75.5814 8.73872 75.4764 9.00114C75.3767 9.25831 75.3111 9.54172 75.2796 9.85138L74.8702 10.0876C74.8702 9.57321 74.9201 9.09036 75.0198 8.639C75.1248 8.18764 75.2849 7.78877 75.5 7.44237C75.7152 7.09073 75.9881 6.81782 76.3188 6.62363C76.6547 6.42419 77.0536 6.32447 77.5154 6.32447C77.6204 6.32447 77.7411 6.33759 77.8776 6.36383C78.014 6.38483 78.1085 6.40845 78.161 6.43469Z"
        fill="white" />
    <path
        d="M97.7317 17.3771L102.498 11.7942L103.381 12.1716L102.659 13.3787L97.811 19.0547L96.9495 18.6866L97.7317 17.3771ZM99.1313 10.3557L98.0628 17.6042L97.6228 18.9743L96.7179 18.5876L97.792 9.78335L99.1313 10.3557ZM102.544 19.4591L106.942 13.6936L108.274 14.2629L102.654 21.1244L101.756 20.7407L102.544 19.4591ZM103.576 12.2551L102.838 19.4309L102.422 21.0254L101.568 20.6603L102.267 13.1941L102.635 11.853L103.576 12.2551Z"
        fill="white" />
    <path
        d="M112.835 22.2279L112.948 22.0863C113.331 21.6062 113.756 21.2165 114.223 20.9174C114.693 20.6142 115.18 20.4154 115.685 20.3211C116.193 20.2228 116.701 20.2383 117.208 20.3678C117.719 20.4932 118.206 20.7407 118.67 21.1104C119.138 21.4834 119.49 21.9049 119.726 22.375C119.969 22.8443 120.1 23.3375 120.117 23.8547C120.141 24.371 120.058 24.8921 119.867 25.4178C119.68 25.9394 119.394 26.4403 119.012 26.9204L118.899 27.062C118.516 27.5421 118.091 27.9318 117.625 28.2309C117.158 28.53 116.668 28.7272 116.156 28.8223C115.652 28.9166 115.144 28.901 114.633 28.7756C114.129 28.6494 113.644 28.3998 113.176 28.0268C112.708 27.6538 112.354 27.2344 112.115 26.7684C111.879 26.2983 111.749 25.8051 111.724 25.2887C111.707 24.7715 111.792 24.2521 111.98 23.7305C112.167 23.2089 112.453 22.708 112.835 22.2279ZM114.087 22.9942L113.974 23.1358C113.709 23.4682 113.498 23.8132 113.34 24.1709C113.186 24.5244 113.097 24.8762 113.073 25.2262C113.053 25.5795 113.11 25.9167 113.243 26.2378C113.38 26.5548 113.606 26.8393 113.922 27.0912C114.234 27.3398 114.557 27.4938 114.893 27.5531C115.235 27.6115 115.575 27.5901 115.911 27.4887C116.246 27.3873 116.57 27.222 116.88 26.9928C117.197 26.7628 117.489 26.4816 117.754 26.1492L117.867 26.0076C118.128 25.6793 118.334 25.3367 118.485 24.9799C118.642 24.6223 118.731 24.2668 118.751 23.9135C118.778 23.5594 118.725 23.2218 118.592 22.9007C118.463 22.5829 118.24 22.298 117.924 22.0461C117.612 21.7974 117.285 21.6439 116.942 21.5854C116.604 21.5302 116.263 21.5538 115.919 21.656C115.583 21.7574 115.259 21.9247 114.945 22.158C114.635 22.3872 114.349 22.6659 114.087 22.9942Z"
        fill="white" />
    <path
        d="M128.264 32.6066L122.677 37.1154L121.762 35.982L128.391 30.6327L129.281 31.7355L128.264 32.6066ZM131.013 33.8072L129.955 34.6515C129.899 34.541 129.839 34.4413 129.774 34.3522C129.716 34.2639 129.644 34.1667 129.559 34.0605C129.348 33.7991 129.121 33.6013 128.878 33.4671C128.634 33.3329 128.383 33.2557 128.124 33.2354C127.865 33.2152 127.6 33.2467 127.33 33.3298C127.068 33.4137 126.806 33.5406 126.545 33.7106L126.104 33.5403C126.504 33.2173 126.912 32.9529 127.325 32.747C127.743 32.5453 128.154 32.4193 128.558 32.3693C128.967 32.3159 129.351 32.3569 129.71 32.4923C130.076 32.6284 130.404 32.8762 130.694 33.2356C130.76 33.3173 130.825 33.4195 130.891 33.5422C130.96 33.6616 131.001 33.7499 131.013 33.8072Z"
        fill="white" />
    <path
        d="M139.69 40.8229L128.948 46.3751L128.276 45.0743L139.018 39.5221L139.69 40.8229ZM138.904 47.0868L133.667 45.6112L130.796 44.7554L132.119 43.9383L134.383 44.4432L138.088 45.5062L138.904 47.0868ZM130.726 49.816L132.94 45.2513L134.441 45.3262L131.514 51.3406L130.726 49.816Z"
        fill="white" />
    <path
        d="M144.669 69.6197L143.558 69.7483L143.029 65.1734L144.139 65.0448L144.669 69.6197ZM146.375 66.3551L146.543 67.8019L138.12 68.7771C137.833 68.8103 137.622 68.8796 137.486 68.9852C137.351 69.0907 137.268 69.2166 137.237 69.3627C137.206 69.5089 137.2 69.6629 137.219 69.8245C137.233 69.9444 137.258 70.0683 137.294 70.1962C137.336 70.3288 137.368 70.428 137.392 70.494L136.212 70.6385C136.162 70.528 136.111 70.3808 136.058 70.1967C136 70.0185 135.956 69.799 135.926 69.5383C135.885 69.1838 135.917 68.8498 136.024 68.5363C136.13 68.2229 136.337 67.9585 136.645 67.7432C136.959 67.5325 137.397 67.3946 137.96 67.3294L146.375 66.3551Z"
        fill="white" />
    <path
        d="M140.642 77.2383L140.823 77.2555C141.434 77.3138 141.992 77.4567 142.498 77.6841C143.009 77.9121 143.441 78.2117 143.796 78.5829C144.156 78.9547 144.42 79.3885 144.589 79.8844C144.763 80.3807 144.822 80.9241 144.766 81.5145C144.709 82.1101 144.548 82.6352 144.284 83.0897C144.024 83.5499 143.682 83.9286 143.258 84.2256C142.839 84.5283 142.357 84.7434 141.813 84.8707C141.273 84.9985 140.698 85.0333 140.086 84.975L139.906 84.9578C139.295 84.8995 138.737 84.7566 138.231 84.5292C137.725 84.3017 137.293 83.9995 136.934 83.6225C136.579 83.2513 136.314 82.8175 136.14 82.3211C135.971 81.8304 135.915 81.2873 135.971 80.6917C136.028 80.0961 136.186 79.5708 136.446 79.1158C136.711 78.6612 137.053 78.2826 137.472 77.9799C137.895 77.6829 138.377 77.4704 138.916 77.3426C139.456 77.2148 140.031 77.18 140.642 77.2383ZM140.684 78.7054L140.504 78.6882C140.081 78.6478 139.676 78.6593 139.291 78.7227C138.91 78.7866 138.567 78.9041 138.261 79.0753C137.954 79.2516 137.703 79.4834 137.506 79.7705C137.316 80.058 137.201 80.403 137.163 80.8053C137.125 81.2024 137.173 81.5575 137.306 81.8708C137.444 82.1898 137.648 82.4622 137.916 82.6881C138.185 82.9141 138.5 83.0944 138.861 83.229C139.227 83.3694 139.622 83.4597 140.045 83.5001L140.225 83.5173C140.643 83.5571 141.043 83.5425 141.424 83.4734C141.809 83.41 142.156 83.2901 142.462 83.1137C142.774 82.9431 143.028 82.7142 143.224 82.4272C143.419 82.1453 143.536 81.8032 143.575 81.4009C143.613 81.0038 143.562 80.6458 143.424 80.3268C143.285 80.0131 143.079 79.7404 142.806 79.5087C142.538 79.2828 142.22 79.1022 141.854 78.9671C141.492 78.8325 141.102 78.7452 140.684 78.7054Z"
        fill="white" />
    <path
        d="M140.218 100.368L139.768 101.612L131.929 98.7731C131.223 98.5175 130.673 98.1564 130.278 97.6897C129.884 97.2229 129.651 96.6865 129.58 96.0804C129.503 95.4774 129.585 94.8428 129.826 94.1766C129.926 93.9003 130.088 93.5906 130.313 93.2478C130.531 92.9081 130.809 92.5956 131.146 92.3104C131.477 92.0284 131.859 91.8291 132.292 91.7124L132.847 92.7252C132.32 92.9143 131.912 93.1627 131.622 93.4707C131.33 93.7836 131.119 94.1202 130.988 94.4804C130.831 94.9147 130.777 95.3192 130.825 95.694C130.874 96.0688 131.027 96.4007 131.285 96.6895C131.537 96.9816 131.894 97.2116 132.358 97.3796L138.502 99.6046L140.218 100.368ZM138.122 93.3715L138.277 93.4278C138.889 93.6494 139.419 93.922 139.865 94.2456C140.315 94.576 140.671 94.9421 140.933 95.3439C141.193 95.7507 141.348 96.1839 141.4 96.6435C141.456 97.1048 141.396 97.5797 141.219 98.0683C141.036 98.5716 140.788 98.9786 140.475 99.2893C140.165 99.6067 139.794 99.8355 139.364 99.9755C138.937 100.122 138.461 100.187 137.937 100.17C137.413 100.154 136.844 100.068 136.23 99.9123L135.549 99.6656C134.982 99.3987 134.492 99.1014 134.081 98.7737C133.667 98.4509 133.343 98.0964 133.109 97.7102C132.873 97.3289 132.735 96.9161 132.695 96.4718C132.66 96.0293 132.735 95.5539 132.919 95.0456C133.092 94.5669 133.351 94.1693 133.694 93.8528C134.036 93.5411 134.439 93.3133 134.905 93.1692C135.37 93.0251 135.876 92.9684 136.423 92.9991C136.973 93.0365 137.54 93.1606 138.122 93.3715ZM137.781 94.7972L137.626 94.7409C137.226 94.5961 136.837 94.4998 136.458 94.4518C136.077 94.4088 135.723 94.423 135.396 94.4942C135.067 94.5704 134.778 94.7141 134.528 94.9251C134.284 95.138 134.094 95.4295 133.96 95.7996C133.796 96.2536 133.756 96.6635 133.842 97.0293C133.927 97.395 134.096 97.7215 134.349 98.0086C134.601 98.3006 134.894 98.563 135.228 98.7957L137.012 99.4418C137.303 99.4858 137.595 99.4966 137.888 99.4743C138.184 99.4586 138.462 99.3978 138.724 99.2916C138.989 99.1921 139.227 99.0356 139.439 98.8219C139.65 98.6081 139.818 98.3286 139.943 97.9831C140.079 97.6081 140.117 97.2563 140.058 96.9277C140.001 96.6058 139.868 96.3094 139.66 96.0384C139.454 95.7741 139.189 95.5356 138.864 95.3231C138.542 95.1172 138.181 94.9419 137.781 94.7972Z"
        fill="white" />
    <path
        d="M125.907 109.087C126.238 108.595 126.621 108.204 127.055 107.914C127.492 107.632 127.959 107.449 128.457 107.367C128.952 107.288 129.46 107.313 129.981 107.442C130.501 107.57 131.01 107.801 131.507 108.135L131.781 108.319C132.356 108.706 132.811 109.134 133.146 109.606C133.485 110.08 133.713 110.568 133.831 111.071C133.948 111.574 133.963 112.064 133.876 112.543C133.788 113.021 133.611 113.459 133.345 113.855C133.006 114.361 132.626 114.738 132.206 114.987C131.783 115.24 131.335 115.379 130.864 115.404C130.396 115.431 129.913 115.36 129.415 115.189C128.92 115.021 128.425 114.771 127.928 114.437L127.386 114.073L130.932 108.792L131.919 109.455L129.184 113.527L129.276 113.588C129.601 113.781 129.95 113.921 130.323 114.007C130.692 114.097 131.053 114.086 131.406 113.975C131.758 113.865 132.074 113.602 132.352 113.188C132.536 112.914 132.647 112.622 132.684 112.312C132.726 112.005 132.689 111.692 132.574 111.375C132.459 111.057 132.268 110.742 132.003 110.432C131.738 110.121 131.392 109.822 130.965 109.535L130.69 109.351C130.355 109.125 130.008 108.959 129.65 108.851C129.294 108.751 128.945 108.716 128.603 108.745C128.258 108.779 127.936 108.882 127.637 109.054C127.335 109.23 127.072 109.484 126.85 109.815C126.563 110.242 126.408 110.663 126.383 111.076C126.358 111.489 126.417 111.905 126.56 112.323L125.486 112.664C125.358 112.357 125.268 112.015 125.217 111.639C125.166 111.264 125.191 110.86 125.291 110.428C125.389 110 125.594 109.553 125.907 109.087Z"
        fill="white" />
    <path
        d="M122.763 126.04L121.979 125.243L125.262 122.013L126.046 122.809L122.763 126.04ZM126.387 125.378L125.349 126.4L119.402 120.357C119.199 120.151 119.015 120.027 118.848 119.985C118.682 119.943 118.531 119.955 118.397 120.02C118.263 120.086 118.138 120.176 118.022 120.29C117.936 120.375 117.853 120.471 117.775 120.578C117.696 120.692 117.638 120.779 117.6 120.838L116.761 119.996C116.817 119.889 116.902 119.758 117.014 119.603C117.119 119.448 117.265 119.278 117.452 119.094C117.707 118.844 117.99 118.664 118.303 118.556C118.616 118.447 118.951 118.448 119.311 118.558C119.67 118.676 120.048 118.937 120.445 119.341L126.387 125.378Z"
        fill="white" />
    <path
        d="M117.063 135.152L110.482 125.007L111.703 124.214L118.285 134.359L117.063 135.152ZM113.266 128.662L113.787 128.352C114.1 128.844 114.32 129.342 114.448 129.848C114.578 130.357 114.616 130.849 114.56 131.323C114.505 131.797 114.355 132.232 114.112 132.628C113.866 133.031 113.528 133.372 113.096 133.652C112.744 133.881 112.396 134.038 112.051 134.124C111.709 134.214 111.372 134.22 111.04 134.142C110.703 134.066 110.375 133.897 110.055 133.636C109.738 133.379 109.426 133.014 109.121 132.543L106.083 127.861L107.311 127.064L110.358 131.759C110.601 132.134 110.85 132.397 111.106 132.551C111.364 132.708 111.632 132.769 111.909 132.733C112.189 132.702 112.483 132.586 112.791 132.386C113.095 132.189 113.331 131.945 113.499 131.655C113.663 131.367 113.762 131.052 113.797 130.711C113.827 130.372 113.799 130.024 113.712 129.668C113.623 129.319 113.474 128.984 113.266 128.662Z"
        fill="white" />
    <path
        d="M95.9385 132.24C96.4976 132.042 97.0381 131.957 97.5598 131.984C98.0783 132.018 98.5621 132.15 99.0112 132.381C99.4553 132.613 99.8479 132.937 100.189 133.35C100.53 133.764 100.801 134.253 101 134.817L101.11 135.129C101.341 135.782 101.45 136.398 101.438 136.975C101.427 137.558 101.318 138.086 101.113 138.56C100.907 139.033 100.627 139.436 100.271 139.768C99.9149 140.1 99.5119 140.345 99.0616 140.504C98.4876 140.707 97.9578 140.783 97.4722 140.733C96.9816 140.683 96.5397 140.528 96.1465 140.266C95.7551 140.009 95.4102 139.664 95.1118 139.229C94.8152 138.8 94.5671 138.303 94.3676 137.739L94.1498 137.123L100.147 135.002L100.543 136.123L95.9192 137.758L95.956 137.862C96.1017 138.211 96.2984 138.531 96.5461 138.822C96.7888 139.115 97.0847 139.322 97.4338 139.443C97.783 139.565 98.1926 139.543 98.6626 139.376C98.9744 139.266 99.2377 139.098 99.4527 138.871C99.6695 138.65 99.8264 138.377 99.9234 138.054C100.02 137.73 100.055 137.364 100.028 136.956C100.001 136.548 99.9012 136.102 99.7298 135.617L99.6195 135.305C99.4848 134.924 99.306 134.584 99.0831 134.284C98.857 133.991 98.5979 133.754 98.3058 133.574C98.0087 133.395 97.6888 133.285 97.3462 133.245C96.9985 133.207 96.6367 133.254 96.2606 133.387C95.7757 133.558 95.4 133.803 95.1335 134.119C94.8671 134.436 94.6663 134.805 94.5312 135.226L93.4663 134.859C93.5467 134.536 93.6785 134.208 93.8617 133.876C94.045 133.544 94.3058 133.235 94.6442 132.948C94.9776 132.663 95.4091 132.427 95.9385 132.24Z"
        fill="white" />
    <path
        d="M85.1424 142.362L84.2146 135.242L85.6589 135.054L86.7595 143.501L85.3543 143.684L85.1424 142.362ZM82.6828 144.08L82.5156 142.736C82.6387 142.746 82.7552 142.747 82.8652 142.738C82.9706 142.735 83.091 142.724 83.2263 142.707C83.5594 142.663 83.8467 142.573 84.0881 142.436C84.3296 142.298 84.5266 142.124 84.6791 141.914C84.8317 141.704 84.943 141.462 85.0132 141.188C85.0788 140.92 85.1073 140.63 85.0985 140.319L85.4739 140.032C85.5404 140.542 85.5533 141.027 85.5128 141.488C85.467 141.949 85.3598 142.365 85.1912 142.737C85.0232 143.113 84.7879 143.419 84.4851 143.654C84.1778 143.895 83.7951 144.046 83.3371 144.105C83.2331 144.119 83.1117 144.122 82.973 144.113C82.8349 144.11 82.7382 144.099 82.6828 144.08Z"
        fill="white" />
    <path
        d="M68.0166 71.5456C68.0166 69.4076 68.8659 67.3572 70.3777 65.8454C71.8895 64.3336 73.9399 63.4843 76.0778 63.4843C78.2158 63.4843 80.2662 64.3336 81.778 65.8454C83.2898 67.3572 84.1391 69.4076 84.1391 71.5456V79.6068C84.1391 81.7448 83.2898 83.7952 81.778 85.307C80.2662 86.8187 78.2158 87.668 76.0778 87.668C73.9399 87.668 71.8895 86.8187 70.3777 85.307C68.8659 83.7952 68.0166 81.7448 68.0166 79.6068V71.5456Z"
        stroke="white" stroke-width="2.01537" stroke-linejoin="round" />
    <path d="M76.0796 68.8587V74.2318" stroke="white" stroke-width="2.01537" stroke-linecap="round"
        stroke-linejoin="round" />
</svg>